<?xml version="1.0" encoding="utf-8"?>
<!-- Generator: Adobe Illustrator 19.0.0, SVG Export Plug-In . SVG Version: 6.00 Build 0)  -->
<svg version="1.1" id="Layer_1" xmlns="http://www.w3.org/2000/svg" xmlns:xlink="http://www.w3.org/1999/xlink" x="0px" y="0px"
	 viewBox="-223 315 164 164" style="enable-background:new -223 315 164 164;" xml:space="preserve">
<style type="text/css">
	.st0{clip-path:url(#SVGID_2_);}
	.st1{fill:#FF301E;}
	.st2{fill:#4B4F54;}
</style>
<g>
	<defs>
		<rect id="SVGID_1_" x="-185" y="357" width="80" height="80"/>
	</defs>
	<clipPath id="SVGID_2_">
		<use xlink:href="#SVGID_1_"  style="overflow:visible;"/>
	</clipPath>
	<g class="st0">
		<path class="st1" d="M-111.9,396.7c0,0,5.7-5.3,5.4-11l-0.3-0.5c0,0-2.2,1.3-3.6,1l-0.9,0.5c0,0-0.7-0.6-2,0.4
			c0,0-1.1-1.8-2.3-1.2l0.8-0.8c0,0-0.5-1.6-4.2-3.5c0,0-0.7-0.8-1.8-3.2l-1.5-0.9c0,0-0.2-1.4-0.4-2.9c0,0-0.8-1.1-1.7-1.1
			c0,0-0.1-0.6-0.2-1.9c0,0-0.7-0.1-1.8-2.4c0,0-1.3-2.2-1.6-2.4l-0.5-1l0.3-0.4c0,0,1.2,2,2.1,2.4c0,0,1.1-1.4-0.1-3.8
			c0,0-1.3,0.6-3-0.3c0,0-1.7,0.3-2.4,0.9c0,0-0.6-0.6-1.9-0.2c0,0,0.4-0.9-3.3-0.7l1.1-0.3l-2.2-0.4c0,0,0.3-0.2,0.1-0.6
			c-0.2-0.4-2.7-0.6-3.6,1.2c0,0,0.9,0.9-0.5,1.5c0,0-1.9-1.2-3.4-1.1c0,0-0.7-0.7-0.7-1.3c0,0-1.2-0.7-2.4-0.3c0,0-0.7-1.2-1.8-0.8
			c0,0-1.5-0.8,0.3-1.8c0,0,0.3-0.9-0.7-1.5c0,0,0.6-0.1,0.7-0.9c0,0-1.3-0.6-2.4,0.3c0,0-1.1-0.7-3,0.1c0,0-2.9-1.1-5.4,0.4h-1.2
			c0,0-2.2,1.5-4.3-0.6c0,0-0.9,0.3-1.5,1.6c0,0-1.8,1.2-3.1,1.5c0,0-1.2,1.2-1.1,2.7c0,0-1.3,1.6-3.5,2c0,0-1,0.7-1.3,1.7
			c0,0-1.3,0-2,2.1c0,0-2.4,1.9-3,3.6c0,0,1.5,3-1.8,7.5l0.8,1.4l-0.6,1.6c0,0,2.8,0.9,3.7,5.9c0,0,2.4,1.7,5.3,3.8
			c0,0,5.5-1.6,7.2-0.1c0,0,7.7-4.1,8.6,0.3c0,0-0.1,0.7,3.5-0.1c0,0,2.3,1.4,0.7,3.7c0,0,0.3,1.3-0.5,2.4c0,0,0.3,1.1,0.3,1.3
			c0,0,4.8,4.6,4.8,7.6l-0.5,0.4c0,0,1.3,2.5,0.9,3.6c-0.5,1.1-1.9,0.3-2,6.3c0,0,3.1,4.4,3.1,5.9c0,0-0.5,3.7,2,6
			c0,0,1.3,2.5,1.3,3c0,0,1.2,0.7,0.3,1.8c0,0,0.2,2,2,2.1c0,0,2.2-1.1,4.7-0.5s5.5-2.4,6.8-4.6l1.6-1.2c0,0,1.3-1.8,0.5-2.9
			c0,0,0.3-0.9,1.3-1.1c0,0,3.2,0,1.9-4.6c0,0-1.2-0.8,1.5-2c0,0,0.9-0.5,1.1-1.3c0,0,3.8-0.8,4.2-3.1c0,0-0.1-3-0.1-3.8
			c0,0,1.1-0.7-0.7-1.5c0,0,0.1-1.1-0.7-1.8c0,0,1.3-1.5-0.2-2.4c0,0,0.5-3.2,3.7-5.6C-116.8,400.5-114.7,397.2-111.9,396.7z
			 M-109.6,413.7c0,0-1.6,3-4.6,3.6c0,0-1.2,0.1-1.3,1.5c0,0,0.7,2.3-0.5,3.6c0,0-1.1,1-0.5,3.1c0,0-0.4,1.1,0.2,1.9
			c0,0,0.8,0.5,0.8,0.7c0,0,1.5-0.9,2.3-0.7c0,0,1.8-4,3.1-7.3c0,0,1-1.6,1.2-3.4l0.3,0.7c0,0,1.3-1.5-0.3-4.1
			C-109,413.3-109.6,413.2-109.6,413.7z"/>
	</g>
</g>
<path class="st2" d="M-69.3,436.6c0,8.3-0.6,13.6-1.8,15.7l-4.8,9.3c-0.9,1.6-3.5,4-8,7.1c-4.5,3.2-9.1,5.8-13.9,7.9
	c-4.8,2.1-8,2.8-9.4,1.9l-8.3-5.4c-2.3-1.4-3.9-3.5-4.6-6.3c-0.7-2.8-0.3-5.5,1-8.1l24.2-46.1c1.4-2.5,3.4-4.1,5.9-4.9
	c2.6-0.8,5-0.5,7.4,1l8.3,5.3c0.5,0.3,1,1,1.4,1.9c1.7-6.3,2.6-12.6,2.6-18.9c0-9.3-1.7-18.2-5.1-26.6s-8.2-15.9-14.3-22.4
	l-11.4,2.9c-10.7-10.3-24.3-15.4-41-15.4s-30.3,5.1-41,15.4l-11.4-2.9c-6.1,6.5-10.8,14-14.3,22.4s-5.1,17.3-5.1,26.6
	c0,6.3,0.9,12.6,2.6,18.9c0.4-1,0.9-1.6,1.4-1.9l8.3-5.3c2.3-1.5,4.8-1.8,7.4-1c2.6,0.8,4.5,2.4,5.9,4.9l24.2,46.1
	c1.4,2.6,1.7,5.3,1,8.1c-0.7,2.8-2.2,4.9-4.6,6.3l-8.3,5.4c-1.5,0.9-4.6,0.2-9.4-1.9c-4.8-2.1-9.4-4.8-13.9-7.9
	c-4.5-3.1-7.2-5.5-8-7.1l-4.8-9.3c-1.2-2.1-1.8-7.4-1.8-15.7c-6.8-12.3-10.3-25.5-10.3-39.6c0-11.1,2.2-21.7,6.5-31.9
	c4.3-10.1,10.1-18.9,17.5-26.2c7.3-7.3,16-13.1,26.2-17.5c10.1-4.3,20.8-6.5,31.9-6.5s21.7,2.2,31.9,6.5
	c10.1,4.3,18.9,10.1,26.2,17.5c7.3,7.3,13.1,16,17.5,26.2c4.3,10.1,6.5,20.8,6.5,31.9C-59,411.1-62.4,424.3-69.3,436.6z"/>
</svg>
