<svg width="164" height="164" viewBox="0 0 164 164" fill="none" xmlns="http://www.w3.org/2000/svg">
<g clip-path="url(#clip0)">
<path d="M111.14 81.66C111.14 81.66 116.8 76.4 116.52 70.68L116.18 70.2C116.18 70.2 114.02 71.48 112.54 71.22L111.66 71.76C111.66 71.76 110.92 71.16 109.64 72.16C109.64 72.16 108.56 70.4 107.36 70.94L108.16 70.14C108.16 70.14 107.68 68.52 103.92 66.64C103.92 66.64 103.18 65.84 102.16 63.4L100.68 62.46C100.68 62.46 100.48 61.04 100.28 59.56C100.28 59.56 99.48 58.48 98.6 58.42C98.6 58.42 98.46 57.82 98.4 56.54C98.4 56.54 97.66 56.48 96.58 54.12C96.58 54.12 95.3 51.9 94.96 51.7L94.42 50.68L94.68 50.28C94.68 50.28 95.9 52.3 96.76 52.64C96.76 52.64 97.9 51.22 96.7 48.8C96.7 48.8 95.42 49.4 93.66 48.54C93.66 48.54 91.98 48.88 91.24 49.42C91.24 49.42 90.64 48.82 89.36 49.22C89.36 49.22 89.76 48.28 86.06 48.48L87.14 48.22L84.92 47.82C84.92 47.82 85.18 47.62 84.98 47.22C84.78 46.82 82.28 46.62 81.42 48.44C81.42 48.44 82.36 49.38 80.88 49.92C80.88 49.92 79 48.7 77.52 48.84C77.52 48.84 76.78 48.16 76.78 47.5C76.78 47.5 75.56 46.82 74.36 47.24C74.36 47.24 73.62 46.02 72.54 46.44C72.54 46.44 71.06 45.64 72.88 44.68C72.88 44.68 73.22 43.74 72.2 43.2C72.2 43.2 72.8 43.14 72.88 42.26C72.88 42.26 71.6 41.66 70.52 42.6C70.52 42.6 69.44 41.86 67.56 42.66C67.56 42.66 64.66 41.52 62.18 43.06H60.96C60.96 43.06 58.74 44.6 56.64 42.46C56.64 42.46 55.76 42.72 55.16 44.08C55.16 44.08 53.4 45.3 52.06 45.62C52.06 45.62 50.84 46.84 50.98 48.32C50.98 48.32 49.64 49.94 47.48 50.34C47.48 50.34 46.46 51.02 46.2 52.02C46.2 52.02 44.92 52.02 44.18 54.1C44.18 54.1 41.82 55.98 41.22 57.74C41.22 57.74 42.76 60.7 39.46 65.28L40.26 66.7L39.66 68.32C39.66 68.32 42.42 69.26 43.36 74.18C43.36 74.18 45.72 75.86 48.68 77.96C48.68 77.96 54.14 76.34 55.88 77.82C55.88 77.82 63.56 73.72 64.5 78.16C64.5 78.16 64.44 78.9 68 78.02C68 78.02 70.28 79.44 68.68 81.72C68.68 81.72 69.02 83 68.14 84.14C68.14 84.14 68.48 85.22 68.48 85.42C68.48 85.42 73.32 90 73.26 93.04L72.78 93.44C72.78 93.44 74.12 95.94 73.66 97.08C73.18 98.22 71.78 97.42 71.7 103.42C71.7 103.42 74.8 107.8 74.8 109.28C74.8 109.28 74.32 112.98 76.76 115.28C76.76 115.28 78.1 117.78 78.1 118.24C78.1 118.24 79.32 118.98 78.36 120C78.36 120 78.56 121.96 80.38 122.08C80.38 122.08 82.54 120.94 85.1 121.54C87.66 122.14 90.56 119.12 91.9 116.9L93.52 115.68C93.52 115.68 94.86 113.92 94.06 112.78C94.06 112.78 94.4 111.84 95.34 111.7C95.34 111.7 98.5 111.7 97.22 107.06C97.22 107.06 96 106.26 98.76 105.04C98.76 105.04 99.64 104.5 99.9 103.76C99.9 103.76 103.68 102.96 104.08 100.66C104.08 100.66 104.02 97.7 104.02 96.82C104.02 96.82 105.1 96.08 103.34 95.34C103.34 95.34 103.48 94.26 102.66 93.52C102.66 93.52 104 92.04 102.46 91.16C102.46 91.16 103 87.92 106.16 85.58C106.22 85.5 108.3 82.2 111.14 81.66ZM113.4 98.72C113.4 98.72 111.8 101.72 108.76 102.32C108.76 102.32 107.54 102.46 107.46 103.8C107.46 103.8 108.2 106.14 106.94 107.44C106.94 107.44 105.86 108.48 106.42 110.56C106.42 110.56 105.98 111.68 106.64 112.42C106.64 112.42 107.42 112.9 107.46 113.16C107.46 113.16 108.98 112.3 109.72 112.42C109.72 112.42 111.54 108.42 112.84 105.08C112.84 105.08 113.84 103.48 114.02 101.7L114.32 102.4C114.32 102.4 115.62 100.92 114.02 98.32C114 98.34 113.44 98.2 113.4 98.72Z" fill="#FF301E"/>
</g>
<path d="M153.75 121.559C153.75 129.887 153.163 135.118 151.988 137.254L147.184 146.543C146.329 148.145 143.66 150.52 139.176 153.67C134.691 156.82 130.047 159.462 125.242 161.598C120.438 163.733 117.288 164.374 115.793 163.52L107.465 158.074C105.116 156.686 103.594 154.577 102.9 151.748C102.206 148.919 102.553 146.223 103.941 143.66L128.125 97.5352C129.513 95.0794 131.488 93.4512 134.051 92.6504C136.613 91.8496 139.069 92.1966 141.418 93.6914L149.746 98.9766C150.28 99.2969 150.76 99.9375 151.188 100.898C152.896 94.599 153.75 88.2995 153.75 82C153.75 72.7109 152.042 63.849 148.625 55.4141C145.208 46.9792 140.457 39.5052 134.371 32.9922L123 35.875C112.323 25.625 98.6562 20.5 82 20.5C65.3438 20.5 51.6771 25.625 41 35.875L29.6289 32.9922C23.543 39.5052 18.7917 46.9792 15.375 55.4141C11.9583 63.849 10.25 72.7109 10.25 82C10.25 88.2995 11.1042 94.599 12.8125 100.898C13.2396 99.9375 13.7201 99.2969 14.2539 98.9766L22.582 93.6914C24.931 92.1966 27.3867 91.8496 29.9492 92.6504C32.5117 93.4512 34.487 95.0794 35.875 97.5352L60.0586 143.66C61.4466 146.223 61.7936 148.919 61.0996 151.748C60.4056 154.577 58.8841 156.686 56.5352 158.074L48.207 163.52C46.7122 164.374 43.5625 163.733 38.7578 161.598C33.9531 159.462 29.3086 156.82 24.8242 153.67C20.3398 150.52 17.6706 148.145 16.8164 146.543L12.0117 137.254C10.8372 135.118 10.25 129.887 10.25 121.559C3.41667 109.28 0 96.0938 0 82C0 70.8958 2.16211 60.2721 6.48633 50.1289C10.8105 39.9857 16.6296 31.2572 23.9434 23.9434C31.2572 16.6296 39.9857 10.8105 50.1289 6.48633C60.2721 2.16211 70.8958 0 82 0C93.1042 0 103.728 2.16211 113.871 6.48633C124.014 10.8105 132.743 16.6296 140.057 23.9434C147.37 31.2572 153.189 39.9857 157.514 50.1289C161.838 60.2721 164 70.8958 164 82C164 96.0938 160.583 109.28 153.75 121.559Z" fill="white"/>
<defs>
<clipPath id="clip0">
<rect width="80" height="80" fill="white" transform="translate(38 42)"/>
</clipPath>
</defs>
</svg>
